/* XPM */
static char * folder_open_xpm[] = {
"16 16 7 1",
" 	c None",
".	c #9C9C00",
"+	c #FFFFFF",
"@	c #FFFF9C",
"#	c #CECE62",
"$	c #000000",
"%	c #FFCE9C",
"                ",
"   .....        ",
"  .+++++.       ",
" .+@@@@@+...... ",
" .+@@@@@@@++++#$",
" .+@@@@@@@@@@@#$",
"............#@#$",
".+@@@@@@%@%#$##$",
".+@@@@%@@%@#$##$",
" .+@@@@@%@%%.$.$",
" .+@@%@%@%%%#$.$",
"  .+%@%@%%%%#.$$",
"  ............$$",
"   $$$$$$$$$$$$$",
"                ",
"                "};
