/* XPM */
static char * folder_open_small_xpm[] = {
"11 11 95 2",
"  	c None",
". 	c #DBDBA1",
"+ 	c #D8D89A",
"@ 	c #D4D48F",
"# 	c #F2F2DE",
"$ 	c #D3D38F",
"% 	c #CACA7D",
"& 	c #D1D18F",
"* 	c #D5D598",
"= 	c #C0C061",
"- 	c #F1F1E1",
"; 	c #DADA9E",
"> 	c #C9C97A",
", 	c #FFFFC5",
"' 	c #FFFFB1",
") 	c #FFFFAC",
"! 	c #FFFFCB",
"~ 	c #BABA43",
"{ 	c #AFAF40",
"] 	c #B4B449",
"^ 	c #ADAD26",
"/ 	c #BDBD92",
"( 	c #DBDBA2",
"_ 	c #D1D191",
": 	c #FFFFBB",
"< 	c #FFFF9F",
"[ 	c #FFFFA1",
"} 	c #FFFF9A",
"| 	c #FFFFAE",
"1 	c #FFFFE7",
"2 	c #FFFFEE",
"3 	c #FFFFC2",
"4 	c #242400",
"5 	c #A5A51A",
"6 	c #AFAF2B",
"7 	c #B3B325",
"8 	c #B2B224",
"9 	c #B2B824",
"0 	c #B2AA24",
"a 	c #B3B224",
"b 	c #AEA60F",
"c 	c #B7B844",
"d 	c #FDFD88",
"e 	c #353516",
"f 	c #B6B64F",
"g 	c #FFFFEF",
"h 	c #FFFF99",
"i 	c #FFFFA6",
"j 	c #FFF1A6",
"k 	c #FFFBA6",
"l 	c #FFEAAC",
"m 	c #FFF692",
"n 	c #131607",
"o 	c #EDED71",
"p 	c #38381D",
"q 	c #CECE81",
"r 	c #DADA9B",
"s 	c #FFFFA9",
"t 	c #FCFA98",
"u 	c #FCF698",
"v 	c #FCEA98",
"w 	c #FDE999",
"x 	c #FFDAA2",
"y 	c #918826",
"z 	c #51530A",
"A 	c #444404",
"B 	c #EFEFD5",
"C 	c #C4C570",
"D 	c #FFFFD6",
"E 	c #FFEAA7",
"F 	c #FFEEAB",
"G 	c #FFF0AB",
"H 	c #FFD8AB",
"I 	c #FFD2B3",
"J 	c #E1D57C",
"K 	c #444700",
"L 	c #1D1D00",
"M 	c #BEBF58",
"N 	c #8D8709",
"O 	c #979309",
"P 	c #97910C",
"Q 	c #97920C",
"R 	c #978A0C",
"S 	c #988D0D",
"T 	c #9E9B00",
"U 	c #4E4F00",
"V 	c #000000",
"W 	c #525353",
"X 	c #4B4D50",
"Y 	c #4D4F51",
"Z 	c #4D4E51",
"` 	c #4D5051",
" .	c #4F4F54",
"..	c #55555A",
"+.	c #5B5B5A",
"    . + @ #           ",
"  $ % & * = -         ",
"; > , ' ) ! ~ { ] ^ / ",
"( _ : < [ } | 1 2 3 4 ",
"5 6 7 8 9 0 a b c d e ",
"f g h i j k l m n o p ",
"q r s t u v w x y z A ",
"B C D E F G H I J K L ",
"  M N O P Q R S T U V ",
"    W X Y Z ` `  ...+.",
"                      "};
