/* XPM */
static char * folder_closed_small_xpm[] = {
"11 11 86 1",
" 	c None",
".	c #DBDBA2",
"+	c #D7D79F",
"@	c #DFDFA6",
"#	c #B6B6A7",
"$	c #D3D392",
"%	c #C6C66E",
"&	c #D2D26A",
"*	c #DDDD55",
"=	c #868602",
"-	c #4D4D41",
";	c #DEDEAF",
">	c #B2B225",
",	c #E5E59D",
"'	c #E2E294",
")	c #E0E08D",
"!	c #E9E98D",
"~	c #A5A52B",
"{	c #B3B236",
"]	c #B4B438",
"^	c #ADB111",
"/	c #BDBD95",
"(	c #D4D472",
"_	c #FFFFCE",
":	c #FFFFBA",
"<	c #FFFFBB",
"[	c #FFFFC4",
"}	c #FFFFC3",
"|	c #FFFFC7",
"1	c #FFF89E",
"2	c #242706",
"3	c #D8D8A1",
"4	c #D1D16D",
"5	c #FFFFAA",
"6	c #FFFF96",
"7	c #FFFE97",
"8	c #FFFF97",
"9	c #FFFB97",
"0	c #FFE697",
"a	c #FFE79C",
"b	c #FFF492",
"c	c #353716",
"d	c #FFFFAF",
"e	c #FFFE9B",
"f	c #FFFF9B",
"g	c #FFEE9C",
"h	c #FFF99B",
"i	c #FFE59C",
"j	c #FFE8A0",
"k	c #FFF391",
"l	c #FFFB9B",
"m	c #FFF89B",
"n	c #FFDF9B",
"o	c #FFE69B",
"p	c #FFEBA0",
"q	c #FFEB91",
"r	c #353916",
"s	c #D7D79E",
"t	c #D5D573",
"u	c #FFFDB6",
"v	c #FFF9A2",
"w	c #FFE5A2",
"x	c #FFEAA2",
"y	c #FFEBA2",
"z	c #FFEDA2",
"A	c #FFD5A8",
"B	c #FFE296",
"C	c #353B16",
"D	c #E0E0AF",
"E	c #A8A828",
"F	c #BFB65E",
"G	c #BDB556",
"H	c #BDBA56",
"I	c #BDB856",
"J	c #BDB656",
"K	c #BDB956",
"L	c #BEAF57",
"M	c #CEC75C",
"N	c #212304",
"O	c #8E8E93",
"P	c #3E3F42",
"Q	c #4D4F52",
"R	c #4D4E52",
"S	c #4D5052",
"T	c #4D4F53",
"U	c #575759",
"  .+@#     ",
" $%&*=-    ",
";>,')!~{]^/",
"+(_:<<[}|12",
"34567890abc",
"34defghijkc",
"34dflmnopqr",
"stuvwxyzABC",
"DEFGHIJKLMN",
" OPQQQQRSTU",
"           "};
